# xmcd
#
# Track frame offsets:
#	150
#	11610
#	35118
#	44923
#	59733
#	95775
#	116998
#	138565
#	150598
#	172853
#	201090
#	230623
#	270490
#	293840
#
# Disc length: 4421
#
# Revision: 1
# Processed by: cddbd v1.5.1PL0 Copyright (c) Steve Scherf et al.
# Submitted via: ExactAudioCopy v0.90b4
# Normalized: r0:TRMNUM
#
DISCID=d711430e
DTITLE=Stevie Ray Vaughan - Texas Flood
DYEAR=1985
DGENRE=Blues
TTITLE0=Scuttle Buttin
TTITLE1=Say What
TTITLE2=Lookin Out The Window
TTITLE3=Look At Little Sister
TTITLE4=Aint Gonna Give Up On Love
TTITLE5=Change It
TTITLE6=Youll Be Mine
TTITLE7=Empty Arms
TTITLE8=Come On
TTITLE9=Cold Shot
TTITLE10=Couldnt Stand The Weather
TTITLE11=Life Without You
TTITLE12=Pride and Joy
TTITLE13=Texas Flood
EXTD=
EXTT0=
EXTT1=
EXTT2=
EXTT3=
EXTT4=
EXTT5=
EXTT6=
EXTT7=
EXTT8=
EXTT9=
EXTT10=
EXTT11=
EXTT12=
EXTT13=
PLAYORDER=
